<?xml version="1.0" encoding="UTF-8" standalone="no"?>
<!-- Created with Inkscape (http://www.inkscape.org/) -->

<svg
   width="137.66866mm"
   height="31.24654mm"
   viewBox="0 0 137.66866 31.24654"
   version="1.1"
   id="svg1"
   sodipodi:docname="logo.svg"
   inkscape:version="1.3.2 (091e20e, 2023-11-25)"
   xmlns:inkscape="http://www.inkscape.org/namespaces/inkscape"
   xmlns:sodipodi="http://sodipodi.sourceforge.net/DTD/sodipodi-0.dtd"
   xmlns:xlink="http://www.w3.org/1999/xlink"
   xmlns="http://www.w3.org/2000/svg"
   xmlns:svg="http://www.w3.org/2000/svg">
  <sodipodi:namedview
     id="namedview1"
     pagecolor="#ffffff"
     bordercolor="#000000"
     borderopacity="0.25"
     inkscape:showpageshadow="2"
     inkscape:pageopacity="0.0"
     inkscape:pagecheckerboard="0"
     inkscape:deskcolor="#d1d1d1"
     inkscape:document-units="mm"
     showgrid="false"
     inkscape:zoom="0.4204826"
     inkscape:cx="242.57841"
     inkscape:cy="177.17737"
     inkscape:window-width="1496"
     inkscape:window-height="1040"
     inkscape:window-x="215"
     inkscape:window-y="44"
     inkscape:window-maximized="0"
     inkscape:current-layer="layer1">
    <inkscape:grid
       id="grid16"
       units="mm"
       originx="-31.409466"
       originy="-106.87931"
       spacingx="0.99999998"
       spacingy="1"
       empcolor="#0099e5"
       empopacity="0.30196078"
       color="#0099e5"
       opacity="0.14901961"
       empspacing="5"
       dotted="false"
       gridanglex="30"
       gridanglez="30"
       visible="false" />
  </sodipodi:namedview>
  <defs
     id="defs1">
    <linearGradient
       id="linearGradient32"
       inkscape:collect="always">
      <stop
         style="stop-color:#e4bd02;stop-opacity:1;"
         offset="0"
         id="stop32" />
      <stop
         style="stop-color:#d8ab02;stop-opacity:1;"
         offset="1"
         id="stop33" />
    </linearGradient>
    <linearGradient
       inkscape:collect="always"
       xlink:href="#linearGradient32"
       id="linearGradient31"
       x1="33.314247"
       y1="98.624474"
       x2="174.84473"
       y2="101.83003"
       gradientUnits="userSpaceOnUse" />
    <linearGradient
       inkscape:collect="always"
       xlink:href="#linearGradient31"
       id="linearGradient50"
       x1="32.933392"
       y1="130.45442"
       x2="135.51837"
       y2="130.8595"
       gradientUnits="userSpaceOnUse" />
  </defs>
  <g
     inkscape:label="Layer 1"
     inkscape:groupmode="layer"
     id="layer1"
     transform="translate(-31.409452,-106.87931)">
    <g
       id="g24"
       transform="translate(0,15.875)"
       style="fill:#b3003a;fill-opacity:1">
      <path
         style="font-size:25.4px;font-family:'Bodoni Moda';-inkscape-font-specification:'Bodoni Moda';fill:#b3003a;fill-opacity:1;stroke-width:0.16244"
         d="m 156.13487,110.46256 q -1.09939,0 -1.9025,-0.51461 -0.7953,-0.51461 -1.23194,-1.3645 -0.43664,-0.84989 -0.43664,-1.86352 0,-1.01362 0.43664,-1.86351 0.43664,-0.84989 1.23194,-1.3645 0.80311,-0.51461 1.9025,-0.51461 1.0994,0 1.9025,0.51461 0.80311,0.51461 1.23195,1.3645 0.43664,0.84989 0.43664,1.86351 0,1.01363 -0.43664,1.86352 -0.42884,0.84989 -1.23195,1.3645 -0.8031,0.51461 -1.9025,0.51461 z m 0,-0.0312 q 0.63937,0 1.02143,-0.36647 0.38986,-0.36646 0.58478,-0.93565 0.19493,-0.57699 0.25731,-1.21635 0.0702,-0.64717 0.0702,-1.19297 0,-0.55359 -0.0702,-1.19296 -0.0624,-0.63936 -0.25731,-1.20855 -0.19492,-0.57699 -0.58478,-0.94345 -0.38206,-0.36647 -1.02143,-0.36647 -0.63936,0 -1.02922,0.36647 -0.38206,0.36646 -0.57698,0.94345 -0.19493,0.56919 -0.26511,1.20855 -0.0624,0.63937 -0.0624,1.19296 0,0.5458 0.0624,1.19297 0.0702,0.63936 0.26511,1.21635 0.19492,0.56919 0.57698,0.93565 0.38986,0.36647 1.02922,0.36647 z"
         id="path15" />
      <path
         style="font-size:25.4px;font-family:'Bodoni Moda';-inkscape-font-specification:'Bodoni Moda';fill:#b3003a;fill-opacity:1;stroke-width:0.16244"
         d="m 150.08431,98.610923 v 11.664507 h 1.24754 v 0.0312 h -3.89857 v -0.0312 h 1.25534 V 98.642113 h -1.25534 v -0.0312 z"
         id="path14" />
      <path
         id="path13"
         style="font-size:25.4px;font-family:'Bodoni Moda';-inkscape-font-specification:'Bodoni Moda';fill:#b3003a;fill-opacity:1;stroke-width:0.16244"
         d="m 128.33166,95.322343 c -0.254,0.18627 -0.60547,0.36003 -1.0542,0.5209 -0.44027,0.1609 -0.85097,0.24081 -1.23197,0.24081 v 2.54041 h -1.85415 v 0.0506 h 1.85415 V 107.489 c 0,0.46567 0.0464,0.93114 0.13953,1.39681 0.1016,0.4572 0.31337,0.83828 0.6351,1.14308 0.3302,0.3048 0.84259,0.45734 1.53686,0.45734 0.77893,0 1.47296,-0.25816 2.08256,-0.77463 0.61807,-0.51647 1.07961,-1.18139 1.38441,-1.99419 h -0.0506 c -0.254,0.61807 -0.60992,1.16846 -1.06712,1.65106 -0.4572,0.47413 -0.92662,0.71107 -1.40922,0.71107 -0.33867,0 -0.5845,-0.10563 -0.7369,-0.3173 -0.1524,-0.22013 -0.22841,-0.64761 -0.22841,-1.28261 v -9.804567 h 10.73526 v 11.600327 h -0.94361 v 0.031 h 2.33939 v -2.85358 c 0.0884,0.95646 0.34018,1.69708 0.75603,2.22209 0.42104,0.52501 0.98291,0.78755 1.68465,0.78755 0.56659,0 1.10189,-0.14813 1.6061,-0.44442 0.50421,-0.30149 0.91233,-0.73054 1.22422,-1.28674 0.31708,-0.5614 0.47542,-1.23154 0.47542,-2.01125 0,-0.77971 -0.15834,-1.44782 -0.47542,-2.00401 -0.31189,-0.55619 -0.72001,-0.9827 -1.22422,-1.27899 -0.50421,-0.29629 -1.03951,-0.44442 -1.6061,-0.44442 -0.70174,0 -1.26361,0.25999 -1.68465,0.7798 -0.41585,0.5146 -0.66766,1.25269 -0.75603,2.21433 v -7.362337 h -2.33939 v 0 h -9.79165 z m 14.32987,7.779877 c 0.43664,0 0.79521,0.1558 1.07591,0.46768 0.2807,0.31188 0.48858,0.74094 0.62373,1.28674 0.14035,0.5458 0.21032,1.16691 0.21032,1.86345 0,0.69655 -0.07,1.32021 -0.21032,1.8712 -0.13515,0.5458 -0.34303,0.97741 -0.62373,1.2945 -0.2807,0.31189 -0.63927,0.46767 -1.07591,0.46767 -0.40545,0 -0.77475,-0.13536 -1.10742,-0.40566 -0.33268,-0.2755 -0.59778,-0.68106 -0.7953,-1.21646 -0.19753,-0.5406 -0.29611,-1.21074 -0.29611,-2.01125 0,-0.8005 0.0986,-1.46861 0.29611,-2.00401 0.19752,-0.5354 0.46262,-0.93841 0.7953,-1.20871 0.33267,-0.2703 0.70197,-0.40515 1.10742,-0.40515 z"
         sodipodi:nodetypes="cccccccsccsccccscsccccccccsccscsscccccccsscsccsccssss" />
      <path
         style="font-size:25.4px;font-family:'Bodoni Moda';-inkscape-font-specification:'Bodoni Moda';fill:#b3003a;fill-opacity:1;stroke-width:0.16244"
         d="m 164.28288,114.36111 q -0.67056,0 -1.27873,-0.12475 -0.60818,-0.11696 -1.0838,-0.37426 -0.46783,-0.25731 -0.74073,-0.65496 -0.2651,-0.39766 -0.2651,-0.95125 0,-0.53021 0.24171,-0.88888 0.2495,-0.35087 0.61597,-0.56139 0.37426,-0.21052 0.74852,-0.30409 0.38206,-0.0858 0.64717,-0.0858 h 0.0234 q -0.52241,0.32748 -0.63937,0.72514 -0.11695,0.39765 -0.11695,0.95125 0,0.49122 0.21052,1.00583 0.21052,0.51461 0.65496,0.86548 0.44443,0.35087 1.14618,0.35087 0.62377,0 1.16177,-0.17933 0.538,-0.17154 0.94345,-0.49122 0.40545,-0.31189 0.63157,-0.74073 0.23391,-0.42884 0.23391,-0.93566 0,-0.49901 -0.28849,-0.83429 -0.2885,-0.33528 -0.74853,-0.51461 -0.45223,-0.17154 -0.95904,-0.17154 -0.16374,0 -0.50682,0 -0.33527,0 -0.67835,0 -0.33527,0 -0.50681,0 -1.05261,0 -1.68418,-0.29629 -0.63157,-0.29629 -0.63157,-0.95905 0,-0.39765 0.21052,-0.68614 0.21053,-0.2885 0.57699,-0.46783 0.37426,-0.18713 0.85769,-0.2729 0.48342,-0.0936 1.03701,-0.0936 v 0.0312 q -0.2495,0 -0.5302,0.0546 -0.2807,0.0468 -0.5302,0.16374 -0.24951,0.11696 -0.40546,0.29629 -0.15594,0.17934 -0.15594,0.43664 0,0.40545 0.43664,0.49122 0.43664,0.078 1.07601,0.078 0.27289,0 0.44443,0 0.17934,-0.008 0.34308,-0.008 0.16373,-0.008 0.38205,-0.008 0.43664,0 0.86549,0.078 0.42884,0.078 0.77191,0.31968 0.35087,0.24171 0.5536,0.70954 0.21052,0.47563 0.21052,1.27093 0,0.69395 -0.2651,1.20856 -0.25731,0.52241 -0.71734,0.86548 -0.46003,0.35087 -1.05261,0.52241 -0.58479,0.17933 -1.23974,0.17933 z m -0.18714,-6.65875 q -0.47562,0 -0.96684,-0.12475 -0.49122,-0.13255 -0.90447,-0.40545 -0.41324,-0.2807 -0.67055,-0.73293 -0.24951,-0.45224 -0.24951,-1.0994 0,-0.64716 0.24951,-1.0916 0.25731,-0.45223 0.67055,-0.72513 0.41325,-0.2807 0.90447,-0.40545 0.49122,-0.13255 0.96684,-0.13255 0.47563,0 0.95125,0.13255 0.48343,0.12475 0.88108,0.40545 0.39765,0.2729 0.63937,0.72513 0.24171,0.44444 0.24171,1.0916 0,0.64716 -0.24171,1.0994 -0.24172,0.45223 -0.63937,0.73293 -0.39765,0.2729 -0.88108,0.40545 -0.47562,0.12475 -0.95125,0.12475 z m 0,-0.0312 q 0.46004,0 0.74853,-0.34307 0.28849,-0.34307 0.42104,-0.87328 0.14035,-0.538 0.14035,-1.11499 0,-0.57699 -0.14035,-1.10719 -0.13255,-0.538 -0.42104,-0.87328 -0.28849,-0.34307 -0.74853,-0.34307 -0.46003,0 -0.74852,0.34307 -0.28849,0.33528 -0.42884,0.87328 -0.13255,0.5302 -0.13255,1.10719 0,0.57699 0.0702,1.11499 0.0702,0.53021 0.34307,0.87328 0.2807,0.34307 0.89667,0.34307 z m 4.15588,-2.58085 q -0.2885,0 -0.53801,-0.20272 -0.2495,-0.20273 -0.2495,-0.58479 0,-0.38985 0.2495,-0.55359 0.25731,-0.17154 0.53801,-0.17154 0.28849,0 0.54579,0.17154 0.26511,0.16374 0.26511,0.48342 h -0.0156 q 0,-0.41325 -0.30409,-0.77971 -0.29629,-0.36647 -0.88107,-0.36647 -0.32748,0 -0.72513,0.16374 -0.38986,0.15594 -0.72514,0.5536 -0.33527,0.38985 -0.49122,1.0916 h -0.0312 q 0.15595,-0.72514 0.50682,-1.12279 0.35087,-0.39765 0.74852,-0.5536 0.40545,-0.16374 0.71734,-0.16374 0.38206,0 0.65496,0.17154 0.2729,0.17154 0.41325,0.44444 0.14814,0.2651 0.14814,0.56139 0,0.49902 -0.2651,0.67835 -0.2651,0.17933 -0.56139,0.17933 z"
         id="path16-5" />
      <path
         style="font-size:25.4px;font-family:'Bodoni Moda';-inkscape-font-specification:'Bodoni Moda';fill:#b3003a;fill-opacity:1;stroke-width:0.16244"
         d="m 156.13487,110.46255 q -1.09939,0 -1.9025,-0.51461 -0.7953,-0.51461 -1.23194,-1.3645 -0.43664,-0.84989 -0.43664,-1.86352 0,-1.01362 0.43664,-1.86351 0.43664,-0.84989 1.23194,-1.3645 0.80311,-0.51461 1.9025,-0.51461 1.0994,0 1.9025,0.51461 0.80311,0.51461 1.23195,1.3645 0.43664,0.84989 0.43664,1.86351 0,1.01363 -0.43664,1.86352 -0.42884,0.84989 -1.23195,1.3645 -0.8031,0.51461 -1.9025,0.51461 z m 0,-0.0312 q 0.63937,0 1.02143,-0.36647 0.38986,-0.36646 0.58478,-0.93565 0.19493,-0.57699 0.25731,-1.21635 0.0702,-0.64717 0.0702,-1.19297 0,-0.55359 -0.0702,-1.19296 -0.0624,-0.63936 -0.25731,-1.20855 -0.19492,-0.57699 -0.58478,-0.94345 -0.38206,-0.36647 -1.02143,-0.36647 -0.63936,0 -1.02922,0.36647 -0.38206,0.36646 -0.57698,0.94345 -0.19493,0.56919 -0.26511,1.20855 -0.0624,0.63937 -0.0624,1.19296 0,0.5458 0.0624,1.19297 0.0702,0.63936 0.26511,1.21635 0.19492,0.56919 0.57698,0.93565 0.38986,0.36647 1.02922,0.36647 z"
         id="path15-2" />
      <path
         style="font-size:25.4px;font-family:'Bodoni Moda';-inkscape-font-specification:'Bodoni Moda';fill:#b3003a;fill-opacity:1;stroke-width:0.16244"
         d="m 150.08431,98.610913 v 11.664507 h 1.24754 v 0.0312 h -3.89857 v -0.0312 h 1.25534 V 98.642103 h -1.25534 v -0.0312 z"
         id="path14-9" />
      <path
         style="font-size:25.4px;font-family:'Bodoni Moda';-inkscape-font-specification:'Bodoni Moda';fill:#b3003a;fill-opacity:1;stroke-width:0.264583"
         d="m 134.78316,110.56229 q -0.4191,0 -0.762,-0.2032 -0.3429,-0.2032 -0.5588,-0.5461 -0.2032,-0.3556 -0.2032,-0.7747 0,-0.4191 0.2032,-0.762 0.2159,-0.3556 0.5588,-0.5588 0.3429,-0.2159 0.762,-0.2159 0.4191,0 0.762,0.2159 0.3556,0.2032 0.5588,0.5588 0.2032,0.3429 0.2032,0.762 0,0.4191 -0.2032,0.7747 -0.2032,0.3429 -0.5588,0.5461 -0.3429,0.2032 -0.762,0.2032 z"
         id="path12-0" />
      <path
         id="path13-9"
         style="font-size:25.4px;font-family:'Bodoni Moda';-inkscape-font-specification:'Bodoni Moda';fill:#b3003a;fill-opacity:1;stroke-width:0.16244"
         d="m 128.33166,95.322343 c -0.254,0.18627 -0.60547,0.36003 -1.0542,0.5209 -0.44027,0.1609 -0.85097,0.24081 -1.23197,0.24081 v 2.54041 h -1.85415 v 0.0506 h 1.85415 V 107.489 c 0,0.46567 0.0464,0.93114 0.13953,1.39681 0.1016,0.4572 0.31337,0.83828 0.6351,1.14308 0.3302,0.3048 0.84259,0.45734 1.53686,0.45734 0.77893,0 1.47296,-0.25816 2.08256,-0.77463 0.61807,-0.51647 1.07961,-1.18139 1.38441,-1.99419 h -0.0506 c -0.254,0.61807 -0.60992,1.16846 -1.06712,1.65106 -0.4572,0.47413 -0.92662,0.71107 -1.40922,0.71107 -0.33867,0 -0.5845,-0.10563 -0.7369,-0.3173 -0.1524,-0.22013 -0.22841,-0.64761 -0.22841,-1.28261 v -9.804567 -0.0507 z"
         sodipodi:nodetypes="cccccccsccsccccscsccc" />
      <path
         style="font-size:25.4px;font-family:'Bodoni Moda';-inkscape-font-specification:'Bodoni Moda';fill:#b3003a;fill-opacity:1;stroke-width:0.264583"
         d="M 112.82479,98.624303 V 110.2575 h 1.524 v 0.0508 h -3.7973 v -0.0508 0 -11.582397 0 -0.0508 z m 7.7597,3.581397 v 8.0518 0 0.0508 h -3.81 v -0.0508 h 1.5113 v -7.7724 c 0,-0.7112 -0.0296,-1.3716 -0.0889,-1.9812 -0.0593,-0.609597 -0.19897,-1.100667 -0.4191,-1.473197 -0.21167,-0.37253 -0.55457,-0.5588 -1.0287,-0.5588 -0.90593,0 -1.6256,0.21167 -2.159,0.635 -0.52493,0.42333 -0.9144,0.960967 -1.1684,1.612897 -0.254,0.64347 -0.4191,1.31657 -0.4953,2.0193 -0.0677,0.70273 -0.1016,1.33773 -0.1016,1.905 l -0.0508,0.127 c 0,-0.60113 0.0339,-1.26577 0.1016,-1.9939 0.0677,-0.7366 0.2286,-1.43933 0.4826,-2.1082 0.26247,-0.66887 0.67733,-1.219197 1.2446,-1.650997 0.57573,-0.4318 1.36313,-0.6477 2.3622,-0.6477 0.9906,0 1.74413,0.1651 2.2606,0.4953 0.52493,0.3302 0.88053,0.7874 1.0668,1.371597 0.19473,0.57573 0.2921,1.2319 0.2921,1.9685 z"
         id="path10"
         sodipodi:nodetypes="cccccccccccsccccccsscsccccccccsccs" />
      <path
         style="font-size:25.4px;font-family:'Bodoni Moda';-inkscape-font-specification:'Bodoni Moda';fill:#b3003a;fill-opacity:1;stroke-width:0.264583"
         d="m 97.571867,98.421093 q 0.5969,0 1.1303,0.1651 0.533397,0.1524 0.876297,0.6223 0.3302,0.4699 0.3302,1.371597 v 5.8293 q 0,0.9144 0.139696,1.8415 0.127,0.9398 0.6096,1.5621 0.4699,0.6223 1.4859,0.6223 0.7112,0 1.4097,-0.1778 0.69849,-0.1778 1.28269,-0.508 0.5715,-0.3175 0.9271,-0.7747 0.3429,-0.4445 0.3429,-1.0033 h 0.0254 q 0,0.6477 -0.4191,1.016 -0.4318,0.381 -0.9398,0.381 -0.5461,0 -0.99059,-0.3556 -0.4572,-0.3429 -0.4572,-0.9906 0,-0.762 0.4699,-1.1049 0.45719,-0.3429 0.97789,-0.3429 0.5842,0 0.9906,0.3556 0.3937,0.3556 0.3937,1.0414 0,0.5969 -0.3683,1.0668 -0.381,0.4826 -1.016,0.8128 -0.64769,0.3429 -1.46049,0.5207 -0.8128,0.1905 -1.6764,0.1905 -1.752596,0 -2.603496,-0.6096 -0.863597,-0.6096 -1.130297,-1.5621 -0.2794,-0.9525 -0.2794,-1.9812 v -6.578597 q 0,-0.4572 -0.1778,-0.8001 -0.1905,-0.3302 -0.7366,-0.3302 -0.4445,0 -0.9779,0.4318 -0.5461,0.4318 -0.8636,1.155697 l -0.0381,-0.0254 q 0.3302,-0.812797 1.0668,-1.333497 0.7366,-0.508 1.6764,-0.508 z m 5.854693,0 q 1.65099,0 2.64159,0.8382 0.9779,0.850897 0.9779,2.298697 0,1.7018 -1.4224,2.6035 -1.43509,0.9144 -4.14019,0.9144 h -2.755893 v -0.0508 h 2.755893 q 1.1176,0 1.7653,-0.5588 0.635,-0.5461 0.9144,-1.3208 0.26669,-0.7747 0.26669,-1.4732 0,-0.635 -0.1524,-1.3335 -0.15239,-0.685797 -0.53339,-1.168397 -0.381,-0.4699 -1.0414,-0.4699 -0.762,0 -1.397,0.4572 -0.635,0.4699 -1.016,1.473197 -0.380996,1.0033 -0.380996,2.6289 h -0.0508 q 0,-1.4478 0.355596,-2.54 0.3556,-1.092197 1.143,-1.701797 0.7747,-0.5969 2.0701,-0.5969 z"
         id="path9" />
      <path
         style="font-size:25.4px;font-family:'Bodoni Moda';-inkscape-font-specification:'Bodoni Moda';fill:#b3003a;fill-opacity:1;stroke-width:0.264583"
         d="m 74.432628,110.56229 q -0.5969,0 -1.1303,-0.1651 -0.5334,-0.1524 -0.8763,-0.6223 -0.3302,-0.4699 -0.3302,-1.3716 v -5.8293 q 0,-0.9144 -0.1397,-1.8415 -0.127,-0.939797 -0.6096,-1.562097 -0.4699,-0.6223 -1.4859,-0.6223 -0.7112,0 -1.4097,0.1778 -0.6985,0.1778 -1.2827,0.508 -0.5715,0.3175 -0.9271,0.774697 -0.3429,0.4445 -0.3429,1.0033 h -0.0254 q 0,-0.6477 0.4191,-1.015997 0.4318,-0.381 0.9398,-0.381 0.5461,0 0.9906,0.3556 0.4572,0.342897 0.4572,0.990597 0,0.762 -0.4699,1.1049 -0.4572,0.3429 -0.9779,0.3429 -0.5842,0 -0.9906,-0.3556 -0.3937,-0.3556 -0.3937,-1.0414 0,-0.5969 0.3683,-1.066797 0.381,-0.4826 1.016,-0.8128 0.6477,-0.3429 1.4605,-0.5207 0.8128,-0.1905 1.6764,-0.1905 1.7526,0 2.6035,0.6096 0.8636,0.6096 1.1303,1.562097 0.2794,0.9525 0.2794,1.9812 v 6.5786 q 0,0.4572 0.1778,0.8001 0.1905,0.3302 0.7366,0.3302 0.4445,0 0.9779,-0.4318 0.5461,-0.4318 0.8636,-1.1557 l 0.0381,0.0254 q -0.3302,0.8128 -1.0668,1.3335 -0.7366,0.508 -1.6764,0.508 z m -5.8547,0 q -1.651,0 -2.6416,-0.8382 -0.9779,-0.8509 -0.9779,-2.2987 0,-1.7018 1.4224,-2.6035 1.4351,-0.9144 4.1402,-0.9144 h 2.7559 v 0.0508 h -2.7559 q -1.1176,0 -1.7653,0.5588 -0.635,0.5461 -0.9144,1.3208 -0.2667,0.7747 -0.2667,1.4732 0,0.635 0.1524,1.3335 0.1524,0.6858 0.5334,1.1684 0.381,0.4699 1.0414,0.4699 0.762,0 1.397,-0.4572 0.635,-0.4699 1.016,-1.4732 0.381,-1.0033 0.381,-2.6289 h 0.0508 q 0,1.4478 -0.3556,2.54 -0.3556,1.0922 -1.143,1.7018 -0.7747,0.5969 -2.0701,0.5969 z"
         id="path5" />
      <path
         style="font-size:25.4px;font-family:'Bodoni Moda';-inkscape-font-specification:'Bodoni Moda';fill:#b3003a;fill-opacity:1;stroke-width:0.264583"
         d="m 64.818743,98.624293 v 0.0508 h -1.905 l -4.9276,11.887197 h -0.0381 l -4.8768,-11.887197 h -1.4351 v -0.0508 h 6.1341 v 0.0508 h -2.1717 l 3.4798,9.042397 3.7592,-9.042397 h -2.4257 v -0.0508 z"
         id="path4" />
      <path
         id="path3-7"
         style="font-size:25.4px;font-family:'Bodoni Moda';-inkscape-font-specification:'Bodoni Moda';fill:#b3003a;fill-opacity:1;stroke-width:0.264583"
         d="m 46.446258,98.370253 c -0.999066,0 -1.786914,0.21623 -2.362647,0.64803 -0.567266,0.4318 -0.981902,0.98167 -1.244368,1.650537 -0.254,0.66887 -0.414925,1.3718 -0.482658,2.1084 -0.02026,0.21781 -0.03644,0.42814 -0.05064,0.63459 v -4.787307 h -3.810104 v 0.0506 h 1.536858 V 110.25734 H 38.495841 35.219039 V 98.624463 h -3.809587 v 0.0506 h 1.523938 v 11.582237 0.0512 h 5.562451 3.539319 1.794723 v -0.0512 h -1.523938 v -5.61309 c 0,-0.56727 0.03355,-1.20258 0.101286,-1.90531 0.0762,-0.70273 0.241577,-1.37553 0.495577,-2.019 0.253999,-0.65193 0.643471,-1.189487 1.168404,-1.612817 0.533399,-0.42333 1.253109,-0.6351 2.159041,-0.6351 0.474133,0 0.816695,0.18608 1.028361,0.55862 0.220133,0.37253 0.359829,0.86369 0.419096,1.473287 0.05927,0.6096 0.0894,1.27008 0.0894,1.98128 v 7.77213 h -1.511535 v 0.0512 h 5.334041 v -0.0512 h -1.523938 v -8.0517 c 0,-0.7366 -0.09724,-1.39262 -0.291972,-1.96836 -0.186266,-0.584197 -0.542185,-1.041287 -1.067118,-1.371487 -0.516466,-0.3302 -1.269728,-0.49558 -2.260327,-0.49558 z"
         sodipodi:nodetypes="sccccccccccccccccccccccscccscssccccccsccs" />
      <path
         style="font-size:25.4px;font-family:'Bodoni Moda';-inkscape-font-specification:'Bodoni Moda';fill:#b3003a;fill-opacity:1;stroke-width:0.264583"
         d="m 34.088956,94.052306 q -0.6223,0 -1.0795,-0.4445 -0.4445,-0.4572 -0.4445,-1.0795 0,-0.635 0.4445,-1.0795 0.4572,-0.4445 1.0795,-0.4445 0.635,0 1.0795,0.4445 0.4445,0.4445 0.4445,1.0795 0,0.6223 -0.4445,1.0795 -0.4445,0.4445 -1.0795,0.4445 z"
         id="text1" />
      <path
         style="font-size:25.4px;font-family:'Bodoni Moda';-inkscape-font-specification:'Bodoni Moda';fill:#b3003a;fill-opacity:1;stroke:#000000;stroke-width:0"
         d="M 92.580852,98.624503 V 110.2577 h 1.524 v 0.0508 h -3.81 v -0.0508 0 -11.582397 h -1.524 v -0.0508 z"
         id="path23"
         sodipodi:nodetypes="ccccccccccc" />
      <path
         style="font-size:25.4px;font-family:'Bodoni Moda';-inkscape-font-specification:'Bodoni Moda';fill:#b3003a;fill-opacity:1;stroke:#000000;stroke-width:0"
         d="m 91.450552,94.052506 q -0.6223,0 -1.0795,-0.4445 -0.4445,-0.4572 -0.4445,-1.0795 0,-0.635 0.4445,-1.0795 0.4572,-0.4445 1.0795,-0.4445 0.635,0 1.0795,0.4445 0.4445,0.4445 0.4445,1.0795 0,0.6223 -0.4445,1.0795 -0.4445,0.4445 -1.0795,0.4445 z"
         id="path22" />
      <path
         id="path21"
         style="font-size:25.4px;font-family:'Bodoni Moda';-inkscape-font-specification:'Bodoni Moda';fill:#b3003a;fill-opacity:1;stroke:#000000;stroke-width:0"
         d="m 84.935384,98.370733 c -0.668866,0 -1.219262,0.1777 -1.651062,0.5333 -0.431799,0.34713 -0.765973,0.821 -1.003039,1.422137 -0.237067,0.59266 -0.402444,1.26153 -0.495577,2.00659 -0.03737,0.29896 -0.06651,0.60236 -0.08888,0.90951 v -4.617807 h -3.810103 v 0.0506 h 1.536857 v 11.582757 h -1.536857 v 0.0506 h 5.334041 v -0.0506 h -1.523938 v -5.61361 c 0,-0.762 0.04246,-1.51133 0.127124,-2.24793 0.09313,-0.74506 0.254058,-1.41393 0.482658,-2.00659 0.237066,-0.601127 0.567304,-1.079457 0.990637,-1.435057 0.423333,-0.3556 0.969277,-0.5333 1.638143,-0.5333 0.465666,0 0.863526,0.0933 1.193726,0.27957 0.338666,0.18627 0.59683,0.43159 0.774629,0.73639 0.09865,0.16142 0.170638,0.33149 0.217041,0.50953 -0.02534,-0.0575 -0.05495,-0.1133 -0.08992,-0.16691 -0.126999,-0.2032 -0.304701,-0.36361 -0.5333,-0.48215 -0.220133,-0.12699 -0.469909,-0.19068 -0.749309,-0.19068 -0.364066,0 -0.707144,0.12685 -1.028877,0.38085 -0.321733,0.254 -0.482658,0.631147 -0.482658,1.130677 0,0.381 0.131308,0.70234 0.393774,0.9648 0.270933,0.26247 0.648081,0.39378 1.130681,0.39378 0.465666,0 0.82552,-0.14809 1.07952,-0.44442 0.262467,-0.29633 0.393258,-0.66064 0.393258,-1.09244 0,-0.37253 -0.09279,-0.715087 -0.279053,-1.028357 -0.186266,-0.31327 -0.453335,-0.56304 -0.800468,-0.74931 -0.338666,-0.19473 -0.744914,-0.29197 -1.219047,-0.29197 z" />
    </g>
    <g
       id="g1"
       style="opacity:1;mix-blend-mode:screen;fill:#ff9809;fill-opacity:1">
      <path
         style="font-size:25.4px;font-family:'Bodoni Moda';-inkscape-font-specification:'Bodoni Moda';opacity:0.726496;mix-blend-mode:normal;fill:#ff9809;fill-opacity:1;stroke-width:0.264583"
         d="m 50.289971,130.50522 v -0.0508 h 1.905 l 4.9276,-11.8872 h 0.0381 l 4.541951,11.8872 h 1.769949 v 0.0508 h -6.1341 v -0.0508 h 2.264072 l -3.641451,-8.8692 -3.689921,8.8692 h 2.4257 v 0.0508 z"
         id="path4-4"
         sodipodi:nodetypes="cccccccccccccccc" />
      <path
         id="path13-9-4"
         style="font-size:25.4px;font-family:'Bodoni Moda';-inkscape-font-specification:'Bodoni Moda';opacity:0.726496;mix-blend-mode:normal;fill:#ff9809;fill-opacity:1;stroke-width:0.16244"
         d="m 110.53862,133.81495 c 0.254,-0.18627 0.60547,-0.36003 1.0542,-0.5209 0.44027,-0.1609 0.85097,-0.24081 1.23197,-0.24081 v -2.54041 h 1.85415 v -0.0506 h -1.85415 v -8.81394 c 0,-0.46567 -0.0464,-0.93114 -0.13953,-1.39681 -0.1016,-0.4572 -0.31337,-0.83828 -0.6351,-1.14308 -0.3302,-0.3048 -0.84259,-0.45734 -1.53686,-0.45734 -0.77893,0 -1.47296,0.25816 -2.08256,0.77463 -0.61807,0.51647 -1.07961,1.18139 -1.38441,1.99419 h 0.0506 c 0.254,-0.61807 0.60992,-1.16846 1.06712,-1.65106 0.4572,-0.47413 0.92662,-0.71107 1.40922,-0.71107 0.33867,0 0.5845,0.10563 0.7369,0.3173 0.1524,0.22013 0.22841,0.64761 0.22841,1.28261 v 9.80457 0.0507 z"
         sodipodi:nodetypes="cccccccsccsccccscsccc" />
      <path
         style="font-size:25.4px;font-family:'Bodoni Moda';-inkscape-font-specification:'Bodoni Moda';opacity:0.726496;mix-blend-mode:normal;fill:#ff9809;fill-opacity:1;stroke-width:0.264583"
         d="m 126.04549,130.51299 v -11.6332 h -1.524 v -0.0508 h 5.334 v 0.0508 h -1.5367 v 11.5824 0 0.0508 z m -7.7597,-3.5814 v -8.0518 0 -0.0508 h 3.81 v 0.0508 h -1.5113 v 7.7724 c 0,0.7112 0.0296,1.3716 0.0889,1.9812 0.0593,0.6096 0.19897,1.10067 0.4191,1.4732 0.21167,0.37253 0.55457,0.5588 1.0287,0.5588 0.90593,0 1.6256,-0.21167 2.159,-0.635 0.52493,-0.42333 0.9144,-0.96097 1.1684,-1.6129 0.254,-0.64347 0.4191,-1.31657 0.4953,-2.0193 0.0677,-0.70273 0.1016,-1.33773 0.1016,-1.905 l 0.0508,-0.127 c 0,0.60113 -0.0339,1.26577 -0.1016,1.9939 -0.0677,0.7366 -0.2286,1.43933 -0.4826,2.1082 -0.26247,0.66887 -0.67733,1.2192 -1.2446,1.651 -0.57573,0.4318 -1.36313,0.6477 -2.3622,0.6477 -0.9906,0 -1.74413,-0.1651 -2.2606,-0.4953 -0.52493,-0.3302 -0.88053,-0.7874 -1.0668,-1.3716 -0.19473,-0.57573 -0.2921,-1.2319 -0.2921,-1.9685 z"
         id="path10-9"
         sodipodi:nodetypes="cccccccccccsccccccsscsccccccccsccs" />
      <path
         style="font-size:25.4px;font-family:'Bodoni Moda';-inkscape-font-specification:'Bodoni Moda';opacity:0.726496;mix-blend-mode:normal;fill:#ff9809;fill-opacity:1;stroke-width:0.264583"
         d="m 97.571867,118.61703 c 0.397933,0 0.7747,0.055 1.1303,0.1651 0.355598,0.1016 0.647697,0.30903 0.876297,0.6223 0.220133,0.31327 0.3302,0.77047 0.3302,1.3716 v 5.8293 c 0,0.6096 0.04657,1.22343 0.139696,1.8415 0.0847,0.62653 0.28787,1.14723 0.6096,1.5621 0.31327,0.41487 0.80857,0.6223 1.4859,0.6223 0.47413,0 0.94403,-0.0593 1.4097,-0.1778 0.46566,-0.11853 0.89322,-0.28787 1.28269,-0.508 0.381,-0.21167 0.69003,-0.4699 0.9271,-0.7747 0.2286,-0.29633 0.3429,-0.63077 0.3429,-1.0033 h 0.0254 c 0,0.4318 -0.1397,0.77047 -0.4191,1.016 -0.28787,0.254 -0.60113,0.381 -0.9398,0.381 -0.36407,0 -0.69426,-0.11853 -0.99059,-0.3556 -0.3048,-0.2286 -0.4572,-0.5588 -0.4572,-0.9906 0,-0.508 0.15663,-0.8763 0.4699,-1.1049 0.69727,-0.52297 1.50061,-0.3967 1.96849,0.0127 0.26247,0.23707 0.3937,0.5842 0.3937,1.0414 0,0.39793 -0.12277,0.75353 -0.3683,1.0668 -0.254,0.32173 -0.59267,0.59267 -1.016,0.8128 -0.43179,0.2286 -0.91862,0.40217 -1.46049,0.5207 -0.54187,0.127 -1.10067,0.1905 -1.6764,0.1905 -1.1684,0 -2.036229,-0.2032 -2.603496,-0.6096 -0.575731,-0.4064 -0.952497,-0.9271 -1.130297,-1.5621 -0.186267,-0.635 -0.2794,-1.2954 -0.2794,-1.9812 v -6.5786 c 0,-0.3048 -0.05927,-0.5715 -0.1778,-0.8001 -0.127,-0.22013 -0.372533,-0.3302 -0.7366,-0.3302 -0.296333,0 -0.6223,0.14393 -0.9779,0.4318 -0.364067,0.28787 -0.651933,0.6731 -0.8636,1.1557 l -0.0381,-0.0254 c 0.220133,-0.54187 0.575733,-0.98637 1.0668,-1.3335 0.491067,-0.33867 1.049867,-0.508 1.6764,-0.508 z m 1.1557,6.6548 v -0.0508 z"
         id="path9-8"
         sodipodi:nodetypes="sccssccsscccccscsccscccsccsscsccccsccc" />
      <path
         style="font-size:25.4px;font-family:'Bodoni Moda';-inkscape-font-specification:'Bodoni Moda';opacity:0.726496;mix-blend-mode:normal;fill:#ff9809;fill-opacity:1;stroke-width:0.264583"
         d="m 74.432628,118.61703 c -0.397933,0 -0.7747,0.055 -1.1303,0.1651 -0.3556,0.1016 -0.6477,0.30903 -0.8763,0.6223 -0.220133,0.31326 -0.3302,0.77046 -0.3302,1.3716 v 5.8293 c 0,0.6096 -0.04657,1.22343 -0.1397,1.8415 -0.08467,0.62653 -0.287867,1.14723 -0.6096,1.5621 -0.313267,0.41486 -0.808567,0.6223 -1.4859,0.6223 -0.474133,0 -0.944033,-0.0593 -1.4097,-0.1778 -0.465667,-0.11854 -0.893233,-0.28787 -1.2827,-0.508 -0.381,-0.21167 -0.690033,-0.4699 -0.9271,-0.7747 -0.2286,-0.29634 -0.3429,-0.63077 -0.3429,-1.0033 h -0.0254 c 0,0.4318 0.1397,0.77046 0.4191,1.016 0.287867,0.254 0.601133,0.381 0.9398,0.381 0.364067,0 0.694267,-0.11854 0.9906,-0.3556 0.3048,-0.2286 0.4572,-0.5588 0.4572,-0.9906 0,-0.508 -0.156633,-0.8763 -0.4699,-1.1049 -0.3048,-0.2286 -0.630767,-0.3429 -0.9779,-0.3429 -0.389467,0 -0.719667,0.11853 -0.9906,0.3556 -0.262467,0.23706 -0.3937,0.5842 -0.3937,1.0414 0,0.39793 0.122767,0.75353 0.3683,1.0668 0.254,0.32173 0.592667,0.59266 1.016,0.8128 0.4318,0.2286 0.918633,0.40216 1.4605,0.5207 0.541867,0.127 1.100667,0.1905 1.6764,0.1905 1.1684,0 2.036233,-0.2032 2.6035,-0.6096 0.575733,-0.4064 0.9525,-0.9271 1.1303,-1.5621 0.186267,-0.635 0.2794,-1.2954 0.2794,-1.9812 v -6.5786 c 0,-0.3048 0.05927,-0.5715 0.1778,-0.8001 0.127,-0.22014 0.372533,-0.3302 0.7366,-0.3302 0.296333,0 0.6223,0.14393 0.9779,0.4318 0.364067,0.28786 0.651933,0.6731 0.8636,1.1557 l 0.0381,-0.0254 c -0.220133,-0.54187 -0.575733,-0.98637 -1.0668,-1.3335 -0.491067,-0.33867 -1.049867,-0.508 -1.6764,-0.508 z"
         id="path5-3"
         sodipodi:nodetypes="sccssccsscccccscscscscccsccsscsccccs" />
      <path
         style="font-size:25.4px;font-family:'Bodoni Moda';-inkscape-font-specification:'Bodoni Moda';opacity:0.726496;mix-blend-mode:normal;fill:#ff9809;fill-opacity:1;stroke:#000000;stroke-width:0"
         d="m 79.410826,130.50586 v -11.6332 h -1.524 v -0.0508 h 3.81 v 0.0508 0 11.5824 h 1.524 v 0.0508 z"
         id="path23-6"
         sodipodi:nodetypes="ccccccccccc" />
      <path
         style="font-size:25.4px;font-family:'Bodoni Moda';-inkscape-font-specification:'Bodoni Moda';opacity:0.726496;mix-blend-mode:normal;fill:#ff9809;fill-opacity:1;stroke:#000000;stroke-width:0"
         d="m 80.541126,135.07786 q 0.6223,0 1.0795,0.4445 0.4445,0.4572 0.4445,1.0795 0,0.635 -0.4445,1.0795 -0.4572,0.4445 -1.0795,0.4445 -0.635,0 -1.0795,-0.4445 -0.4445,-0.4445 -0.4445,-1.0795 0,-0.6223 0.4445,-1.0795 0.4445,-0.4445 1.0795,-0.4445 z"
         id="path22-0" />
      <path
         id="path21-3"
         style="font-size:25.4px;font-family:'Bodoni Moda';-inkscape-font-specification:'Bodoni Moda';opacity:0.726496;mix-blend-mode:normal;fill:#ff9809;fill-opacity:1;stroke:#000000;stroke-width:0"
         d="m 87.056294,130.75963 c 0.668866,0 1.219262,-0.1777 1.651062,-0.5333 0.431799,-0.34713 0.765973,-0.821 1.003039,-1.42214 0.237067,-0.59266 0.402444,-1.26153 0.495577,-2.00659 0.03737,-0.29896 0.06651,-0.60236 0.08888,-0.90951 v 4.61781 h 3.810103 v -0.0506 h -1.536857 v -11.58276 h 1.536857 v -0.0506 h -5.334041 v 0.0506 h 1.523938 v 5.61361 c 0,0.762 -0.04246,1.51133 -0.127124,2.24793 -0.09313,0.74506 -0.254058,1.41393 -0.482658,2.00659 -0.237066,0.60113 -0.567304,1.07946 -0.990637,1.43506 -0.423333,0.3556 -0.969277,0.5333 -1.638143,0.5333 -0.465666,0 -0.863526,-0.0933 -1.193726,-0.27957 -0.338666,-0.18627 -0.59683,-0.43159 -0.774629,-0.73639 -0.09865,-0.16142 -0.170638,-0.33149 -0.217041,-0.50953 0.02534,0.0575 0.05495,0.1133 0.08992,0.16691 0.126999,0.2032 0.304701,0.36361 0.5333,0.48215 0.220133,0.12699 0.469909,0.19068 0.749309,0.19068 0.364066,0 0.707144,-0.12685 1.028877,-0.38085 0.321733,-0.254 0.482658,-0.63115 0.482658,-1.13068 0,-0.381 -0.131308,-0.70234 -0.393774,-0.9648 -0.270933,-0.26247 -0.648081,-0.39378 -1.130681,-0.39378 -0.465666,0 -0.82552,0.14809 -1.07952,0.44442 -0.262467,0.29633 -0.393258,0.66064 -0.393258,1.09244 0,0.37253 0.09279,0.71509 0.279053,1.02836 0.186266,0.31327 0.453335,0.56304 0.800468,0.74931 0.338666,0.19473 0.744914,0.29197 1.219047,0.29197 z" />
      <path
         id="path3-7-6"
         style="font-size:25.4px;font-family:'Bodoni Moda';-inkscape-font-specification:'Bodoni Moda';opacity:0.726496;mix-blend-mode:normal;fill:#ff9809;fill-opacity:1;stroke-width:0.264583"
         d="m 46.446261,130.75924 c -0.999066,0 -1.786914,-0.21623 -2.362647,-0.64803 -0.567266,-0.4318 -0.981902,-0.98167 -1.244368,-1.65054 -0.254,-0.66887 -0.414925,-1.3718 -0.482658,-2.1084 -0.02026,-0.21781 -0.03644,-0.42814 -0.05064,-0.63459 v 4.78731 h -3.810104 v -0.0506 h 1.536858 v -11.58224 h -1.536858 -3.276802 v 11.63288 h -3.809587 v -0.0506 h 1.523938 v -11.58224 -0.0512 h 5.562451 3.539319 1.794723 v 0.0512 h -1.523938 v 5.61309 c 0,0.56727 0.03355,1.20258 0.101286,1.90531 0.0762,0.70273 0.241577,1.37553 0.495577,2.019 0.253999,0.65193 0.643471,1.18949 1.168404,1.61282 0.533399,0.42333 1.253109,0.6351 2.159041,0.6351 0.474133,0 0.816695,-0.18608 1.028361,-0.55862 0.220133,-0.37253 0.359829,-0.86369 0.419096,-1.47329 0.05927,-0.6096 0.0894,-1.27008 0.0894,-1.98128 v -7.77213 h -1.511535 v -0.0512 h 5.334041 v 0.0512 h -1.523938 v 8.0517 c 0,0.7366 -0.09724,1.39262 -0.291972,1.96836 -0.186266,0.5842 -0.542185,1.04129 -1.067118,1.37149 -0.516466,0.3302 -1.269728,0.49558 -2.260327,0.49558 z"
         sodipodi:nodetypes="sccccccccccccccccccccccscccscssccccccsccs" />
      <path
         style="font-size:25.4px;font-family:'Bodoni Moda';-inkscape-font-specification:'Bodoni Moda';opacity:0.726496;mix-blend-mode:normal;fill:#ff9809;fill-opacity:1;stroke-width:0.264583"
         d="m 34.088959,135.07719 q -0.6223,0 -1.0795,0.4445 -0.4445,0.4572 -0.4445,1.0795 0,0.635 0.4445,1.0795 0.4572,0.4445 1.0795,0.4445 0.635,0 1.0795,-0.4445 0.4445,-0.4445 0.4445,-1.0795 0,-0.6223 -0.4445,-1.0795 -0.4445,-0.4445 -1.0795,-0.4445 z"
         id="text1-0" />
    </g>
  </g>
</svg>
